<?xml version="1.0" encoding="UTF-8" standalone="no"?>
<svg
   xmlns:dc="http://purl.org/dc/elements/1.1/"
   xmlns:cc="http://creativecommons.org/ns#"
   xmlns:rdf="http://www.w3.org/1999/02/22-rdf-syntax-ns#"
   xmlns:svg="http://www.w3.org/2000/svg"
   xmlns="http://www.w3.org/2000/svg"
   id="svg55"
   version="1.1"
   viewBox="0 0 299.8877 47.730556"
   height="47.730556"
   width="299.8877">
  <metadata
     id="metadata59">
    <rdf:RDF>
      <cc:Work
         rdf:about="">
        <dc:format>image/svg+xml</dc:format>
        <dc:type
           rdf:resource="http://purl.org/dc/dcmitype/StillImage" />
        <dc:title>logo</dc:title>
      </cc:Work>
    </rdf:RDF>
  </metadata>
  <!-- Generator: Sketch 43.2 (39069) - http://www.bohemiancoding.com/sketch -->
  <title
     id="title2">logo</title>
  <desc
     id="desc4">Created with Sketch.</desc>
  <defs
     id="defs6" />
  <g
     transform="translate(-0.02911765,-0.37762553)"
     style="fill:none;fill-rule:evenodd;stroke:none;stroke-width:1"
     id="Page-1">
    <g
       transform="translate(-13,-52)"
       id="Disseny-Home-capçalera-blanca">
      <g
         transform="translate(13,52)"
         id="logo">
        <g
           style="fill:#fe5000;fill-opacity:1"
           id="Group">
          <path
             style="fill:#fe5000;fill-opacity:1;stroke:none"
             id="Fill-1"
             d="m 34.212696,14.093467 c -5.727941,-5.6997505 -15.013235,-5.6997505 -20.752451,0 -5.7254901,5.697799 -5.7254901,14.94599 0,20.645253 5.739216,5.708531 15.02451,5.708531 20.752451,0 5.726471,-5.699263 5.726471,-14.947454 0,-20.645253 z M 40.6725,41.167281 c -9.3,9.254533 -24.372059,9.254533 -33.6720588,0 -9.2950981,-9.252582 -9.2950981,-24.253209 0,-33.5043267 9.2999998,-9.2520939 24.3720588,-9.2520939 33.6720588,0 9.295098,9.2511177 9.295098,24.2517447 0,33.5043267 z" />
          <polygon
             style="fill:#fe5000;fill-opacity:1;stroke:none"
             points="29.498971,19.068797 29.219559,18.7922 25.798971,20.813748 25.798971,15.270589 21.873971,15.270589 21.873971,20.821553 18.469559,18.777077 18.193088,19.042942 20.227892,22.4665 14.653873,22.4665 14.653873,26.363736 20.217598,26.363736 18.165637,29.758999 18.438186,30.034133 21.873971,28.001365 21.873971,33.560622 25.798971,33.560622 25.798971,28.025756 29.219559,30.071695 29.494559,29.798025 27.451912,26.363736 33.029853,26.363736 33.029853,22.4665 27.44848,22.4665 "
             id="Fill-3" />
          <path
             style="fill:#fe5000;fill-opacity:1;stroke:none"
             id="Fill-5"
             d="m 22.770637,21.585682 -4.403921,-2.635232 2.628921,4.408477 z m 2.142157,5.67292 4.405882,2.641574 -2.62745,-4.415794 z m -3.931372,-1.782513 -2.651471,4.385549 4.438726,-2.612792 z m 3.910784,-3.890407 4.42647,-2.615719 -2.653431,4.388964 z" />
          <path
             style="fill:#fe5000;fill-opacity:1;stroke:none"
             id="Fill-7"
             d="M 71.804608,22.453182 H 65.482059 V 11.58102 h 6.322549 c 4.282843,0 6.85,2.027402 6.85,5.426081 0,3.408923 -2.567157,5.446081 -6.85,5.446081 M 71.998726,1.2908344 H 54.426667 V 47.647405 H 65.482059 V 32.73166 h 6.516667 c 11.328431,0 18.166666,-5.89488 18.166666,-15.724559 0,-9.8184592 -6.838235,-15.7162666 -18.166666,-15.7162666" />
          <polygon
             style="fill:#fe5000;fill-opacity:1;stroke:none"
             points="107.98931,47.647356 119.04323,47.647356 119.04323,11.580972 131.74912,11.580972 131.74912,1.2907856 95.482451,1.2907856 95.482451,11.580972 107.98931,11.580972 "
             id="Fill-9" />
          <polygon
             style="fill:#fe5000;fill-opacity:1;stroke:none"
             points="151.13676,1.2907856 140.07696,1.2907856 140.07696,47.647356 151.13676,47.647356 "
             id="Fill-11" />
          <path
             style="fill:#fe5000;fill-opacity:1;stroke:none"
             id="Fill-13"
             d="m 188.15917,15.177707 c -3.35883,5.438764 -3.87942,6.611984 -3.95147,6.611984 h -0.0676 c -0.0642,0 -0.5902,-1.17322 -3.94461,-6.611984 l -8.625,-13.8869214 H 161.17142 V 47.647356 h 10.85294 c 0,0 -0.049,-24.256135 -0.002,-27.567493 0.83726,1.363472 3.55735,5.999763 3.89069,6.568567 l 5.39706,9.164286 2.87059,4.895326 2.86274,-4.895326 5.39755,-9.164286 c 0.33137,-0.568804 3.03088,-5.160703 3.87353,-6.552469 v 27.551395 h 10.86765 V 1.2907856 h -10.39853 z" />
          <path
             style="fill:#fe5000;fill-opacity:1;stroke:none"
             id="Fill-14"
             d="m 245.90372,26.511547 c 0,7.856425 -3.23088,11.258031 -9.28235,11.258031 -6.0598,0 -9.27745,-3.401606 -9.27745,-11.258031 V 1.2904929 H 216.27676 V 26.769118 c 0,13.75277 8.09804,21.304793 20.34461,21.304793 12.17941,0 20.33971,-7.552023 20.33971,-21.304793 V 1.2904929 h -11.05736 z" />
          <path
             style="fill:#fe5000;fill-opacity:1;stroke:none"
             id="Fill-15"
             d="m 285.90162,19.504278 c -5.59853,-2.037158 -10.20687,-3.1494 -10.20687,-6.165623 0,-1.830321 1.90883,-3.4669743 5.19853,-3.4669743 3.29069,0 6.84755,1.9000793 7.9652,5.9582973 l 9.61569,-5.524133 c -2.91912,-5.839756 -9.22255,-9.92821947 -16.92206,-9.92821947 -10.00245,0 -17.24657,6.48124637 -17.24657,13.61861747 0,8.053995 6.38529,11.067292 11.9098,13.167379 6.59118,2.487909 11.97941,3.410387 11.97941,7.071515 0,2.228386 -1.83921,4.060658 -5.7848,4.060658 -4.87304,0 -8.16225,-3.470877 -9.35049,-6.939314 l -9.49265,5.460228 c 3.42402,7.011512 9.8054,11.257055 18.37598,11.257055 10.73236,0 17.97402,-5.96903 17.97402,-14.358648 0,-7.861792 -7.17206,-11.726344 -14.01519,-14.210838" />
        </g>
      </g>
    </g>
  </g>
</svg>
